<?xml version="1.0" standalone="no"?><!DOCTYPE svg PUBLIC "-//W3C//DTD SVG 1.1//EN" "http://www.w3.org/Graphics/SVG/1.1/DTD/svg11.dtd"><svg t="1524916344958" class="icon" style="" viewBox="0 0 1024 1024" version="1.1" xmlns="http://www.w3.org/2000/svg" p-id="1047" xmlns:xlink="http://www.w3.org/1999/xlink" width="16" height="16"><defs><style type="text/css"></style></defs><path d="M123.613309 270.648478a135.634847 135.634847 0 0 0 16.042372 0.639988l43.86053-2.218626 250.448741 316.026207-14.207739 43.561868a328.868637 328.868637 0 0 0 27.562161 266.363116l446.711811-448.631775a326.906007 326.906007 0 0 0-162.855681-43.263207c-34.644698 0-69.118733 5.461233-102.270126 16.298368l-43.604533 14.20774-315.087557-249.936751 1.365308-42.879214c0.170664-5.80256 0-11.562455-0.554656-17.279684L123.613309 270.648478z m139.090783-259.408577A38.228632 38.228632 0 0 1 321.796342 17.341122c24.746213 38.143301 36.436665 82.259825 35.071357 126.16302l245.542165 194.769763c41.812567-13.653083 85.246437-20.479625 128.76564-20.479625 91.731652 0 183.591301 30.463442 258.981918 91.304993a39.465943 39.465943 0 0 1 3.199942 58.452262L468.865646 994.304544a39.508609 39.508609 0 0 1-58.452262-2.986611 413.603084 413.603084 0 0 1-71.764017-389.112867L143.879604 356.492238c-2.303958 0.127998-4.56525 0.127998-6.869207 0.127997a219.430644 219.430644 0 0 1-119.720472-35.412684 38.228632 38.228632 0 0 1-5.973224-59.134916L262.704092 11.239901z" p-id="1048" fill="#666666"></path><path d="M755.580389 695.174028l255.525982 255.65398a42.665884 42.665884 0 0 1-60.372226 60.329561l-255.483316-255.65398a42.665884 42.665884 0 0 1 60.32956-60.329561z" p-id="1049" fill="#666666"></path></svg>